<?xml version="1.0" standalone="no"?>
<!DOCTYPE svg PUBLIC "-//W3C//DTD SVG 20010904//EN"
 "http://www.w3.org/TR/2001/REC-SVG-20010904/DTD/svg10.dtd">
<svg version="1.0" xmlns="http://www.w3.org/2000/svg"
 width="128.000000pt" height="128.000000pt" viewBox="0 0 128.000000 128.000000"
 preserveAspectRatio="xMidYMid meet">

<g transform="translate(0.000000,128.000000) scale(0.100000,-0.100000)"
fill="#000000" stroke="none">
<path d="M994 1049 l-71 -71 -37 16 c-56 23 -177 46 -246 46 -99 0 -207 -27
-310 -77 -83 -41 -108 -60 -195 -147 -55 -56 -109 -118 -120 -138 -19 -38 -19
-38 0 -75 27 -51 166 -196 221 -230 24 -15 44 -30 44 -33 0 -3 -27 -32 -60
-65 -33 -33 -60 -66 -60 -75 0 -20 19 -40 40 -40 20 0 920 900 920 921 0 19
-20 39 -40 39 -8 0 -47 -32 -86 -71z m-185 -114 l54 -17 -41 -40 -40 -41 -38
18 c-96 45 -192 28 -270 -49 -77 -78 -94 -174 -49 -270 l18 -38 -50 -50 -51
-51 -34 24 c-71 49 -123 96 -170 152 -26 32 -48 62 -48 67 0 18 103 132 158
175 132 104 260 148 412 141 52 -2 119 -12 149 -21z m-113 -145 l28 -11 -109
-109 c-60 -60 -112 -107 -116 -104 -5 3 -11 20 -15 39 -23 126 95 229 212 185z"/>
<path d="M1031 866 l-23 -25 74 -73 c41 -40 83 -85 93 -100 17 -27 17 -29 0
-55 -34 -52 -161 -168 -225 -206 -112 -65 -176 -81 -327 -82 -123 0 -134 -2
-155 -22 -29 -29 -18 -39 56 -52 142 -26 282 -4 426 66 83 41 108 60 195 147
55 56 109 118 120 138 19 38 19 38 0 75 -24 44 -182 213 -199 213 -7 0 -23
-11 -35 -24z"/>
<path d="M833 667 c-17 -18 -34 -47 -38 -66 -9 -43 -73 -107 -116 -116 -36 -7
-102 -62 -93 -77 8 -12 80 -10 128 4 55 16 138 99 154 154 14 48 16 120 4 128
-5 3 -23 -9 -39 -27z"/>
</g>
</svg>
